:SAMPLES-PER-SECOND 24
:FULLY-SPECIFIED
:DEGREES
573
root  3.87673 39.5238 17.8254 5.65173 23.9191 -0.774719
RightUpLeg  -32.1606 -4.89791 -2.7379
RightLeg  40.7863 -10.2266 -9.58337
RightFoot  -5.37962 0.103954 -2.66927
RightToes  -2.08645e-008 3.77894e-005 6.81332e-007
Spine  2.59318 -4.04668 -10.806
Spine1  2.87433 -7.40475 15.9275
HEad  -26.9513 -2.60271 11.7422
LeftShoulder1  7.13308 -13.0189 -37.0978
LeftArm  -2.16394 13.3829 -19.302
LeftForeArm  141.459 -76.9466 -132.708
LeftHand  -0.40088 -1.53264 6.88987
RightShoulder  4.01832 6.60336 33.8704
RightArm  -0.826103 -31.9003 29.4372
RightForeArm  93.8328 80.4071 79.4079
RightHand  -0.267152 8.50266 -2.62237
LeftUpLeg  -1.61663 2.04918 2.37121
LeftLeg  10.2231 12.0262 2.73033
LeftFoot  -13.7715 -0.12335 -9.67537
LeftToes  1.24767e-006 1.47042e-008 1.32732e-009
574
root  4.11217 39.3842 18.0355 5.58679 20.1398 -0.930664
RightUpLeg  -33.4525 -8.31017 -0.180412
RightLeg  35.9307 -11.1828 -8.8237
RightFoot  -4.78617 0.161347 -3.37536
RightToes  -2.08645e-008 3.77894e-005 6.81332e-007
Spine  2.49667 -3.86929 -10.5349
Spine1  2.92831 -7.15018 15.8348
HEad  -26.1401 -2.00207 12.0229
LeftShoulder1  7.17715 -13.0806 -37.1994
LeftArm  -1.41913 10.4786 -19.0181
LeftForeArm  134.938 -77.9273 -126.9
LeftHand  -0.455683 -1.56871 7.77113
RightShoulder  4.00037 6.58804 33.7535
RightArm  1.11051 -30.3444 27.8525
RightForeArm  89.6189 80.2492 74.7127
RightHand  -0.0532112 9.03355 -0.820525
LeftUpLeg  -1.11036 3.19532 2.04062
LeftLeg  11.4555 14.8804 3.10754
LeftFoot  -14.8678 -0.195856 -9.2596
LeftToes  1.24767e-006 1.47042e-008 1.32732e-009
575
root  4.33291 39.1688 18.4143 5.51172 16.062 -0.623596
RightUpLeg  -34.1728 -10.4359 1.82713
RightLeg  29.7583 -9.69786 -6.17262
RightFoot  -4.09818 0.185881 -3.37254
RightToes  -2.08645e-008 3.77894e-005 6.81332e-007
Spine  2.30072 -3.92491 -10.6686
Spine1  3.19565 -7.11665 15.6402
HEad  -25.1737 -1.01395 11.8487
LeftShoulder1  7.36821 -13.2769 -37.8088
LeftArm  -0.397047 7.04378 -18.6915
LeftForeArm  127.055 -78.7696 -120.015
LeftHand  -0.481003 -1.81686 7.93199
RightShoulder  3.99466 6.58665 33.7028
RightArm  2.14519 -28.0365 27.3946
RightForeArm  83.3184 79.9004 68.9582
RightHand  -0.0163008 8.68406 -0.522547
LeftUpLeg  -0.167568 4.11856 1.18137
LeftLeg  12.7594 17.7762 3.74028
LeftFoot  -16.4016 -0.330697 -9.68412
LeftToes  1.24767e-006 1.47042e-008 1.32732e-009
576
root  4.54155 38.9333 18.9767 5.67187 12.342 -0.318054
RightUpLeg  -34.6665 -12.9311 4.19978
RightLeg  22.6453 -7.755 -3.79676
RightFoot  -3.67458 0.149958 -2.60621
RightToes  -2.08645e-008 3.77894e-005 6.81332e-007
Spine  1.82368 -4.4981 -10.9748
Spine1  3.39912 -7.68954 16.0899
HEad  -24.019 0.519859 10.7971
LeftShoulder1  7.51398 -13.4222 -38.2743
LeftArm  0.538225 3.55882 -19.5427
LeftForeArm  118.732 -79.4583 -112.133
LeftHand  -0.46411 -2.05048 7.4361
RightShoulder  3.98578 6.5732 33.6676
RightArm  2.57987 -25.7041 27.5137
RightForeArm  79.4594 79.6197 65.2877
RightHand  -0.299028 8.47835 -2.88023
LeftUpLeg  0.739073 5.14594 0.429166
LeftLeg  13.9412 20.3833 4.37604
LeftFoot  -17.9368 -0.50981 -10.6965
LeftToes  1.24767e-006 1.47042e-008 1.32732e-009
577
root  4.73365 38.686 19.7221 5.79016 9.42578 -0.169189
RightUpLeg  -34.6936 -15.8697 6.64011
RightLeg  15.6935 -8.77421 -2.32892
RightFoot  -3.69477 0.144806 -2.53356
RightToes  -2.08645e-008 3.77894e-005 6.81332e-007
Spine  1.51849 -5.53668 -11.2067
Spine1  3.36334 -8.88886 17.3014
HEad  -22.8806 2.42089 9.00066
LeftShoulder1  7.57365 -13.4946 -38.4289
LeftArm  1.97972 -0.420336 -21.4564
LeftForeArm  110.523 -79.924 -103.96
LeftHand  -0.488618 -2.12824 7.74028
RightShoulder  3.97039 6.54154 33.6396
RightArm  2.13293 -24.5843 27.8039
RightForeArm  80.4025 79.6968 66.3139
RightHand  -0.202547 8.46748 -2.07654
LeftUpLeg  1.95661 6.0991 -0.0923715
LeftLeg  14.81 22.5375 5.03113
LeftFoot  -18.9425 -0.61382 -10.9399
LeftToes  1.24767e-006 1.47042e-008 1.32732e-009
578
root  4.89332 38.3924 20.6672 6.24084 6.94324 0.215637
RightUpLeg  -34.3175 -13.3485 4.76362
RightLeg  10.5581 -17.3333 0.0656507
RightFoot  -4.46329 0.202047 -3.86522
RightToes  -2.08645e-008 3.77894e-005 6.81332e-007
Spine  1.14883 -6.82362 -11.5645
Spine1  2.8317 -10.3796 19.1091
HEad  -22.018 4.68434 6.53668
LeftShoulder1  7.63583 -13.5706 -38.5873
LeftArm  4.29584 -4.993 -23.3426
LeftForeArm  108.063 -80.0418 -101.222
LeftHand  -0.531603 -2.52185 8.01421
RightShoulder  3.93133 6.49563 33.4315
RightArm  1.16532 -25.0853 28.1357
RightForeArm  84.7536 79.9993 71.0495
RightHand  -0.279148 8.34328 -2.73637
LeftUpLeg  3.35714 6.79501 -0.785134
LeftLeg  15.1385 23.7554 5.29296
LeftFoot  -20.421 -0.880604 -12.5714
LeftToes  1.24767e-006 1.47042e-008 1.32732e-009
579
root  5.03733 38.0387 21.8565 7.13928 4.27899 0.686096
RightUpLeg  -35.3601 -11.7079 3.85932
RightLeg  8.32725 -22.347 1.80689
RightFoot  -6.39933 0.163725 -4.79074
RightToes  -2.08645e-008 3.77894e-005 6.81332e-007
Spine  0.272181 -8.13568 -11.5895
Spine1  2.03787 -11.8198 21.2804
HEad  -21.7951 7.52088 3.24018
LeftShoulder1  7.68629 -13.6333 -38.7126
LeftArm  6.70462 -9.66735 -25.2351
LeftForeArm  110.846 -79.9997 -103.285
LeftHand  -0.490261 -3.10483 6.93983
RightShoulder  3.87219 6.43527 33.0762
RightArm  0.293438 -26.1486 27.5622
RightForeArm  90.1552 80.2631 77.0117
RightHand  -0.179109 8.14636 -1.9105
LeftUpLeg  4.56247 7.40852 -1.60843
LeftLeg  15.6415 25.3892 5.64783
LeftFoot  -21.7716 -1.26316 -15.188
LeftToes  1.24767e-006 1.47042e-008 1.32732e-009
580
root  5.17979 37.6844 23.3558 7.98999 1.62872 0.799866
RightUpLeg  -36.5812 -13.7133 6.00837
RightLeg  8.55995 -24.0344 1.74758
RightFoot  -9.14701 0.042006 -5.54042
RightToes  -2.08645e-008 3.77894e-005 6.81332e-007
Spine  -1.45158 -9.52719 -10.2982
Spine1  1.72812 -13.396 23.3152
HEad  -21.9081 10.6935 -1.08874
LeftShoulder1  7.63618 -13.6196 -38.4662
LeftArm  9.20392 -13.8328 -27.4765
LeftForeArm  113.806 -79.9388 -105.507
LeftHand  -0.440253 -3.43841 6.04099
RightShoulder  3.78756 6.34791 32.5623
RightArm  -0.568774 -26.941 25.7684
RightForeArm  92.3497 80.3289 79.9439
RightHand  -0.303649 7.95594 -3.00797
LeftUpLeg  6.30611 7.71341 -2.20366
LeftLeg  16.1864 27.4199 6.19916
LeftFoot  -21.6934 -1.41529 -16.9392
LeftToes  1.24767e-006 1.47042e-008 1.32732e-009
581
root  5.25026 37.4689 25.1625 8.73865 -0.675171 0.585022
RightUpLeg  -36.4784 -14.8759 7.51881
RightLeg  9.73963 -29.9915 0.748565
RightFoot  -9.76008 0.0513708 -8.49667
RightToes  -2.08645e-008 3.77894e-005 6.81332e-007
Spine  -4.21928 -11.0179 -7.19173
Spine1  1.8685 -15.3472 24.8245
HEad  -21.4944 13.9362 -6.61049
LeftShoulder1  7.53067 -13.5629 -38.0149
LeftArm  12.1386 -15.7684 -29.4189
LeftForeArm  122.11 -79.5571 -112.686
LeftHand  -0.435962 -3.62706 5.87502
RightShoulder  3.63302 6.19649 31.5628
RightArm  -1.31701 -28.0698 23.6366
RightForeArm  91.5601 80.2917 79.9502
RightHand  -0.320399 7.98085 -3.14726
LeftUpLeg  8.69687 10.8115 -1.44235
LeftLeg  16.4349 24.1363 5.87319
LeftFoot  -21.3453 -1.79478 -21.5422
LeftToes  1.24767e-006 1.47042e-008 1.32732e-009
582
root  5.15775 37.4737 27.115 8.8269 -3.83838 0.389954
RightUpLeg  -37.0909 -18.4823 11.6878
RightLeg  13.4728 -27.8961 -2.65156
RightFoot  -6.76585 0.501021 -13.435
RightToes  -2.08645e-008 3.77894e-005 6.81332e-007
Spine  -5.90741 -11.5425 -2.74917
Spine1  1.11663 -16.3468 25.6191
HEad  -21.1443 17.2106 -12.7132
LeftShoulder1  7.48255 -13.5351 -37.8125
LeftArm  14.7384 -14.4414 -30.5725
LeftForeArm  134.934 -78.4447 -124.268
LeftHand  -0.339358 -3.64062 4.61833
RightShoulder  3.49018 6.04487 30.6527
RightArm  -1.34115 -28.6572 21.1354
RightForeArm  88.826 80.1915 78.0492
RightHand  -0.430423 7.65043 -4.19343
LeftUpLeg  9.19633 17.935 0.895245
LeftLeg  22.3186 17.1013 7.53224
LeftFoot  -17.2792 -1.37325 -28.5587
LeftToes  1.24767e-006 1.47042e-008 1.32732e-009
